<svg xmlns="http://www.w3.org/2000/svg" width="1200" height="630" viewBox="0 0 1200 630">
  <rect width="1200" height="630" fill="#f2efe4"/>
  <g stroke="#a7ada5" opacity=".45"><path d="M0 70h1200M0 140h1200M0 210h1200M0 280h1200M0 350h1200M0 420h1200M0 490h1200M0 560h1200"/><path d="M80 0v630M160 0v630M240 0v630M320 0v630M400 0v630M480 0v630M560 0v630M640 0v630M720 0v630M800 0v630M880 0v630M960 0v630M1040 0v630M1120 0v630"/></g>
  <rect x="50" y="40" width="1100" height="550" fill="#f2efe4" stroke="#17221f" stroke-width="3"/>
  <rect x="50" y="40" width="1100" height="13" fill="#cc3010"/>
  <g font-family="ui-monospace,SFMono-Regular,Menlo,monospace" font-weight="700" fill="#17221f"><text x="85" y="99" font-size="22" letter-spacing="4">SWARMLET AI</text><text x="1115" y="99" text-anchor="end" font-size="17" letter-spacing="2">ADAPTIVE ORCHESTRATION</text></g>
  <g font-family="Avenir Next Condensed,DIN Condensed,Arial Narrow,sans-serif" font-weight="800" fill="#17221f"><text x="85" y="220" font-size="76">ONE LARGE MODEL.</text><text x="85" y="299" font-size="76" fill="#cc3010">MANY ORDINARY MACHINES.</text></g>
  <text x="88" y="355" font-family="Avenir Next,Segoe UI,sans-serif" font-size="23" fill="#33433d">Swarmlet chooses the best split for each model / hardware mix.</text>
  <g stroke="#17221f" stroke-width="3" fill="none"><path d="M212 468H475M620 468h268"/><path d="m457 457 18 11-18 11M870 457l18 11-18 11"/></g>
  <g font-family="ui-monospace,SFMono-Regular,Menlo,monospace" text-anchor="middle" font-weight="700">
    <rect x="85" y="422" width="127" height="92" fill="#fffdf5" stroke="#17221f" stroke-width="3"/><text x="148" y="458" font-size="17" fill="#17221f">MAC</text><text x="148" y="485" font-size="13" fill="#68746f">+ GPUs + RAM</text>
    <rect x="475" y="422" width="145" height="92" fill="#17221f" stroke="#17221f" stroke-width="3"/><text x="548" y="458" font-size="15" fill="#fffdf5">SWARMLET AI</text><text x="548" y="485" font-size="13" fill="#d7ded9">CHOOSE + PLACE</text>
    <rect x="888" y="422" width="220" height="92" fill="#fffdf5" stroke="#cc3010" stroke-width="4"/><text x="998" y="458" font-size="17" fill="#17221f">QWEN3.8 FLASH</text><text x="998" y="485" font-size="13" fill="#68746f">ONE SERVED MODEL</text>
  </g>
  <g fill="#cc3010"><circle cx="342" cy="468" r="7"/><circle cx="754" cy="468" r="7"/></g>
  <text x="1115" y="558" text-anchor="end" font-family="ui-monospace,SFMono-Regular,Menlo,monospace" font-size="18" fill="#17221f">QWEN FIRST · PUBLIC MESH TARGET</text>
</svg>
